<svg height="16" width="16" xmlns="http://www.w3.org/2000/svg"><path d="m7.9999997 2c-3.3119998 0-5.9999997 2.6879998-5.9999997 5.9999997 0 3.3120003 2.6879999 6.0000003 5.9999997 6.0000003 3.3120003 0 6.0000003-2.688 6.0000003-6.0000003 0-3.3119999-2.688-5.9999997-6.0000003-5.9999997zm0 2.142857c2.1291433-.0000001 3.8571423 1.7280001 3.8571423 3.8571427 0 .5753957-.128694 1.1198775-.35491 1.6104913l-5.1160714-5.1127232c.4913282-.2270201 1.0373591-.3549108 1.6138391-.3549108zm-3.4553568 2.1495536 5.1662943 5.1629464c-.5159543.256204-1.0961473.401785-1.7109375.401785-2.1291424 0-3.8571426-1.727999-3.8571426-3.8571423 0-.6137253.1464118-1.1923025.4017858-1.7075891z" fill="#d40000"/></svg>